<svg xmlns="http://www.w3.org/2000/svg" xmlns:xlink="http://www.w3.org/1999/xlink" width="156.427" height="100" viewBox="0 0 156.427 100">
  <defs>
    <linearGradient id="linear-gradient" x1="0.78" y1="0.121" x2="0.5" y2="1" gradientUnits="objectBoundingBox">
      <stop offset="0" stop-color="#53a687"/>
      <stop offset="1" stop-color="#c1d96c"/>
    </linearGradient>
    <clipPath id="clip-path">
      <rect id="Retângulo_45" data-name="Retângulo 45" width="156.427" height="100" fill="url(#linear-gradient)"/>
    </clipPath>
    <linearGradient id="linear-gradient-2" x1="0.419" y1="-0.057" x2="0.438" y2="1.36" xlink:href="#linear-gradient"/>
  </defs>
  <g id="RegimLogo_1_" data-name="RegimLogo (1)" clip-path="url(#clip-path)">
    <path id="Caminho_75" data-name="Caminho 75" d="M15.8,14.481V47.554H27.381a21.961,21.961,0,0,0,6.881-1.309h0a17.65,17.65,0,0,0,6.408-3.618h0a14.529,14.529,0,0,0,3.755-5.478h0a18.936,18.936,0,0,0,1.241-6.959h0q0-7.579-5-11.645h0q-5.129-3.913-13.014-4.065H15.8Zm7.924,46.372H15.8v38.93L0,99.634V0L27.656.148h0a54.522,54.522,0,0,1,15.219,2.1h0A33.289,33.289,0,0,1,54.8,8.141h0A22.744,22.744,0,0,1,61.617,17.2h0a30.209,30.209,0,0,1,2.17,11.61h0a30.087,30.087,0,0,1-1.481,9.509h0a27.516,27.516,0,0,1-4.272,8.131h0a28.789,28.789,0,0,1-6.89,6.408h0a38.355,38.355,0,0,1-7.088,4.41h0a18.363,18.363,0,0,1,6.064,5.719h0L68.688,100H52.014a8.14,8.14,0,0,1-4.1-.965h0a8.38,8.38,0,0,1-2.86-2.756h0L30.482,64.16h0A7.35,7.35,0,0,0,27.9,61.61h0a9.053,9.053,0,0,0-4.169-.758ZM87.021,96.037V83.763a3.887,3.887,0,0,0-3.983-3.779H73.411a3.887,3.887,0,0,0-3.983,3.779V96.037a3.886,3.886,0,0,0,3.983,3.778h9.627a3.886,3.886,0,0,0,3.983-3.778Zm69.406-1.075V84.842a4.994,4.994,0,0,0-5.118-4.855H95.691a4.994,4.994,0,0,0-5.118,4.855v10.12a4.994,4.994,0,0,0,5.118,4.855h55.618a4.994,4.994,0,0,0,5.118-4.855Zm-68.7-37.516V45.323a3.964,3.964,0,0,0-4.062-3.853H73.49a3.964,3.964,0,0,0-4.062,3.853V57.446A3.964,3.964,0,0,0,73.49,61.3H83.663a3.964,3.964,0,0,0,4.062-3.853Zm68.7-.9V46.233a4.9,4.9,0,0,0-5.018-4.761H95.592a4.9,4.9,0,0,0-5.019,4.761V56.541a4.9,4.9,0,0,0,5.019,4.76h55.817a4.9,4.9,0,0,0,5.018-4.76ZM87.021,16.235V3.961A3.887,3.887,0,0,0,83.038.183H73.411a3.887,3.887,0,0,0-3.983,3.779V16.235a3.887,3.887,0,0,0,3.983,3.778h9.627a3.887,3.887,0,0,0,3.983-3.778Zm69.406-1.075V5.04A4.994,4.994,0,0,0,151.309.185H95.691A4.994,4.994,0,0,0,90.573,5.04V15.16a4.994,4.994,0,0,0,5.118,4.855h55.618a4.994,4.994,0,0,0,5.118-4.855Z" fill-rule="evenodd" fill="url(#linear-gradient-2)"/>
  </g>
</svg>
